<?xml version="1.0" encoding="utf-8"?>
<!-- Generator: Adobe Illustrator 21.0.0, SVG Export Plug-In . SVG Version: 6.00 Build 0)  -->
<svg version="1.1" id="Layer_1" xmlns="http://www.w3.org/2000/svg" xmlns:xlink="http://www.w3.org/1999/xlink" x="0px" y="0px"
	 viewBox="0 0 2146.5 639.8" style="enable-background:new 0 0 2146.5 639.8;fill: #fff" xml:space="preserve">
<g>
	<path d="M1073.8,567.8c-15.7,1.1-31.5,1.8-47.2,2.6c-26.9,1.3-53.8,3.4-80.7,4.9c-21.1,1.2-42.1,2.3-63.2,3.1
		c-21.1,0.8-42.1,1.2-63.2,1.9c-4.4,0.1-8.8-0.7-12.7-2.7c-4.5-2.3-5.2-4.7-2-8.5c4.2-4.9,8.7-9.6,13.3-14.1
		c8.9-8.6,17.7-17.4,26.4-26.1c6.4-6.4,13.6-12.1,20-18.6c13.2-13.5,26.6-26.8,40.5-39.6c10.5-9.8,21.3-19.3,32.8-28
		c9.5-7.1,17.6-16,26.7-23.6c15.7-13,30.9-26.7,45.8-40.5c4.7-4.3,8.6-9.6,13.2-14c8.1-7.7,27-7.2,35.7-0.2
		c15.7,12.7,30.5,26.4,46.6,38.7c8.7,6.6,17.1,13.4,25.2,21c0.8,0.7,1.4,1.6,1.8,2.6c0.3,0.7,0.3,1.3,0.3,2.2
		c-0.1,3.2-2.2,6.1-5.1,7.3c-7,2.9-14.6,3.2-22,3.8c-20.3,1.4-40.7,2.7-61,3.8c-11.9,0.7-23.7,0.7-35.6,1.2c-1.9,0.1-4.7-0.5-5.3,2
		c-0.6,2.2,13.6,13.1,18.2,18.3c8.2,9.1,18.3,16.2,26.7,25.1c10.7,11.3,23.9,19.6,34.8,30.8c7,7.1,15.6,12.8,23.3,19.4
		c3.7,3.2,1.2,1.4,5.4,4.7c1.8,1.5,5.7,7,5.4,10.2c-0.3,3.6-2.4,8.1-5.9,8.9C1098.1,567.5,1074.9,567.8,1073.8,567.8z M929.8,562
		c33.8-1.8,67.5-3.9,101.2-6c12.6-0.8,25.9-0.1,38.4-2.7c1.2-0.2,2-0.6,2.2-1.9c0.1-0.8-0.5-1.8-1.4-2.6
		c-13.9-12.8-28.3-25.2-41.7-38.6c-17.6-17.7-36.2-34.2-55.7-49.8c-5.2-4.2-8.1-4.2-13.1,0.1c-14.6,12.1-29.4,23.9-43.7,36.4
		c-15.7,13.8-31.4,27.8-45.5,43.3c-6,6.6-13,12.2-18.7,19.2c-0.9,1.1-2.2,2.3-2.2,3.5c0.6,1.8,2.4,1.4,3.9,1.4
		C870.3,564.4,921.2,562.5,929.8,562z M1078.3,426.3c1.7-0.1,3.5-0.3,4.1-2.2c0.4-1.4-0.6-2.4-1.6-3.4c-11-10.5-23.5-19.3-34.4-30
		c-2.4-2.4-5.9-5.7-10-2.4c-2.6,2.1-4.9,4.4-7.3,6.8c-9.7,9.6-18.5,20-28.7,29.1c-1.3,1.2-3.9,2.4-2.8,4.7c1,2,3.5,1.4,5.5,1.4
		C1013,430.4,1063.2,427.3,1078.3,426.3z"/>
	<path d="M1515.2,538.9c-24.2,1.8-48.4,3.2-72.6,5.3c-23.6,2.1-47.3,4.3-70.9,5.6c-5,0.3-9.9-0.9-14.5-3c-4.5-2.1-4.6-4.7-0.8-7.8
		c19-15.1,36.2-32.2,54.7-47.8c7-5.9,15.4-10.3,23.1-15.4c12.5-8.4,25.8-15.6,38.5-23.5c13.7-8.6,25.9-19,38.7-28.6
		c7.5-5.6,13.8-12.8,20.9-19c11.9-10.3,22.9-21.5,33.5-33.1c8.4-9.1,16.5-18.5,25-27.5c4.6-4.8,9.3-9.3,13.8-14.2
		c5.2-5.7,12.1-7.1,19.5-7.4c27.6-1.3,55.1-3.3,82.6-5.3c16.4-1.1,32.9-0.9,49.3-1.4c2.9-0.1,5.6,0.5,8.2,1.7
		c5.5,2.6,5.8,7.2,0.9,10.7c-3.4,2.4-7.3,3-11.4,3.2c-18.8,0.8-37.6,1.4-56.3,2.4c-19.9,1.1-39.8,2.6-59.7,3.7
		c-7.2,0.4-10.3,6.2-14.6,10.3c-11.7,11.4-21.1,25-33.6,35.6c-2.1,1.8-3.5,3.9-5.9,5.9c-1.1,0.7-1.3,2-0.9,3.1
		c0.6,1.7,2.2,1.1,3.5,1.1c25.1-1.2,50.2-2.4,75.3-3.7c12-0.6,23.9-1.6,35.9-2.3c4.1-0.3,7.9,0.7,11.7,2.2c2.1,0.8,3.8,1.6,3.8,4.5
		c0,2.6-1.1,3.8-3.2,5c-4.5,2.5-9.3,3.5-14.3,3.9c-18.5,1.3-37.1,2.7-55.7,3.8c-23.2,1.3-46.4,2.7-69.5,3.1c-7,0.1-9.8,5-13,8.6
		c-8.3,9.3-17.4,17.6-26.7,25.8c-6.5,5.8-12.3,12.6-19.3,17.6c-12.3,8.7-23.1,19.5-36.3,27c-9.2,5.2-17.6,11.8-27.1,16.6
		c-9.6,4.8-17.8,12-27.4,16.9c-3.3,1.7-10.8,7.3-10.5,8.3c0.5,1.2,1.6,1.1,2.6,1c5.1-0.4,10.2-0.8,15.4-1.3
		c18.7-1.9,37.4-3.6,56.1-4.6c26.6-1.4,53.2-3.2,79.9-4.8c4-0.2,7.9,0.6,11.7,2.1c2,0.8,3.4,1.7,3.4,4.3c0,2.5-0.3,4.4-2.9,5.7
		c-5.9,3-12.3,3.7-18.8,4c-14,0.6-27.9,1.5-41.9,2.2C1515.2,539,1515.2,538.9,1515.2,538.9z"/>
	<path d="M1731.1,17.1c9.1-0.4,18.3-0.8,27.4-1.3c3.3-0.2,6.2,0.8,9.1,2.1c3.6,1.6,4.2,5.6,1,7.8c-3,2.1-6.1,3.9-10,4
		c-14.6,0.5-29.3,0.9-43.9,1.7c-19.9,1.1-66.2,4.2-66.7,4.2c-11.7,0.7-18,7-24.9,13.7c-9.6,9.4-34.9,34.4-37.2,37.9
		c-1,1.5-2.2,2.6-1.1,4.6c1,1.8,2.9,1.4,4.5,1.3c26.4-1.4,52.8-2.7,79.2-4.2c10.3-0.6,20.6-1.8,30.8-2.3c3.4-0.2,7,0.5,10.4,1.2
		c2.8,0.6,5.8,1.5,6,5.1c0.2,3.8-2.7,5.8-5.7,6.7c-4.6,1.4-9.4,2.2-14.2,2.5c-17.4,1.1-34.9,2.4-52.3,3.4
		c-23.9,1.3-47.9,2.6-71.8,3.6c-7.1,0.3-10.7,5.6-14.2,10c-6.3,7.9-13.4,14.8-21,21.1c-8.5,7-15.6,15.5-24.3,22.1
		c-10.1,7.7-19.1,16.8-29.8,23.8c-10.9,7.1-20.9,15.8-32.4,21.8c-9.4,4.9-17.5,11.4-27.3,16c-0.8,0.3-5.5,3-4.4,5.6
		c1,2.3,2.3,1.8,4.3,1.6c31.7-2.2,63.3-5.5,95-7c16.6-0.8,33.2-1.7,49.8-2.5c4.1-0.2,7.9,1,11.5,2.9c3.7,2,4,5.3,0.8,8
		c-3.3,2.7-7.2,4.1-11.5,4.4c-17,0.9-33.9,1.6-50.9,2.7c-21.7,1.5-43.5,2.2-65.1,4.4c-24.7,2.5-49.4,4.1-74.1,5.9
		c-5.4,0.4-11,0.3-16.2-1.8c-3.8-2.3-3-5.9-1.4-7.6c5.9-5.2,18.8-18.1,29.5-25.8c7.1-5.1,13.3-11.4,19.6-17.5
		c8.4-6.8,15.9-11.4,24-16.8c13.9-9.2,28.6-17,42.3-26.7c14.4-10.2,28.1-21.2,41.5-32.6c21.8-18.7,42.1-39.1,61-60.7
		c9.8-11.2,21.1-20.7,30.8-31.9c2.7-3.1,6.4-4.7,10.6-5C1656.7,21.4,1693.8,18,1731.1,17.1z"/>
	<path d="M1018.9,222.4c0,1.4-0.6,4,1.1,4.1c1.9,0.1,2.5-0.6,3.4-1.4c6.3-5.3,13.8-14.1,20.9-20.6c6.2-5.6,11.8-11.9,18-17.7
		c10-9.2,19.6-18.8,29.6-28c14.4-13.3,28.6-26.8,42.8-40.3c11.3-10.8,23.6-20.2,35.5-30.1c13.8-11.6,27.9-22.8,42-34.1
		c8.9-7.1,19.3-8.4,30.3-6.7c2.4,0.4,5.1,0.7,6.1,3.6c1.1,3.2-1.1,5.5-3,7.5c-4.5,4.6-9.6,8.7-13.7,13.7
		c-12.2,14.8-28.4,24.9-43,36.9c-11.2,9.3-22.1,19-33.5,27.9c-13.7,10.7-26.1,22.9-38.6,34.9c-13.4,12.8-27.2,25.2-40.2,38.4
		c-7.5,7.7-16.6,13.8-23.7,21.8c-11,12.2-23.9,22.4-34.9,34.7c-7.2,8-18.1,7.8-28.1,5.2c-9.9-2.6-10.1-3.3-9.6-13.5
		c2-42.4,2.8-84.9,3.8-127.3c0.5-19.8,1.6-39.6,1.3-59.4c0-2.7,0.8-4.7,3.3-6.2c8.5-5.2,17.7-5.4,27-4c4.4,0.6,5.9,3.6,5.9,7.9
		c-0.1,25.5,0,51,0,76.5C1021.2,146.9,1018.9,196.9,1018.9,222.4z"/>
	<path d="M221,168.3c-15.1,1.3-30.2,3.1-45.4,2.1c-1.4-0.1-3.1,0-3.8,1.8c-0.4,1.1,0.3,1.8,1.1,2.5c5.1,4.2,8.7,8.7,12,13.6
		c8.7,13,20.2,23.7,29.9,35.8c10.9,13.6,24.8,24.4,35.2,38.3c5.1,6.8,10.9,13,15.1,20.3c3.3,5.8,1.9,9.4-4.4,11.3
		c-8.3,2.6-15.6,0.7-22.1-5c-10.7-9.4-19.1-21-29.1-31c-11.9-11.9-20.9-26.1-31.7-38.8c-2.9-3.4-6.3-6.1-9.6-9.2
		c-4.6-4.2-7.3-8.5-11.8-12c-5.4-4.3-10.7-8.8-16.3-12.9c-2.6-1.9-5.7-0.9-7.6,1.3c-10.4,12.8-23.7,22.8-34.2,35.4
		c-10.2,12.2-20.7,24.1-30.1,37c-6.5,8.8-13.6,17.2-20.2,25.9c-3.5,4.6-6.5,9.7-10,14.3c-3.6,4.8-12.1,5.5-16.6,1.9
		c-3.5-2.8-3.3-8.1,0.2-13.5c8.7-13.3,17-26.9,26-39.9c6-8.7,13.4-16.3,19.6-24.9c11.5-15.8,24.4-30.5,37.2-45.2
		c6.2-7.1,13.7-13.4,20.3-20.3c7.6-8,16.4-14.3,24.8-21.1c8.1-6.6,15-14.4,22.8-21.3c6.4-5.7,12-12.7,17-19.9c9-13,23.7-13.6,35.4-3
		c17.4,15.7,31.9,33.8,45.7,52.5c2.6,3.5,5,7.1,7.2,10.8c3.2,5.5,1.2,10.2-4.7,12.1c-6.4,2-12.9,1.1-19.3,1.1
		C242.6,168.3,231.8,168.3,221,168.3z M201.7,153.6c13.1-0.6,26.1-1.3,39.2-2c1-0.1,2.5,0.3,3-1.3c0.4-1.2-0.7-1.8-1.7-2.6
		c-3.6-3.2-7.2-6.3-10.6-9.7c-7.6-7.7-13.9-15.3-21-22.8c-2.4-2.6-4.3-3.2-6.8-0.2c-5.5,6.6-11.4,12.7-16.4,19.8
		c-3.8,5.5-8,10.3-13.1,15.2c-0.8,0.8-2,1.5-1.8,2.8c0.4,1.7,1.9,1.6,3.2,1.6C182.1,154.5,199.3,153.7,201.7,153.6z"/>
	<path d="M2008.3,393.1c-1.6,0-3.1,0.2-3.7,1.8c-0.4,1,0,1.9,0.9,2.6c9.1,8.2,16.9,17.6,24.6,27.2c7.2,9,14.8,17.8,21.7,27.1
		c8.3,11.2,16.1,22.7,24.1,34.2c3.9,5.6,7.4,11.4,11.2,17c2.4,3.6,4.5,7.3,0.9,11.3c-3.8,4.1-8.5,4.5-13.7,3
		c-7.2-2-10.1-8.4-13.7-13.8c-8.3-12.7-18.1-24.1-27.5-35.9c-7.4-9.3-15.1-18.4-23.3-27.1c-9.2-9.7-17.2-20.2-25.7-30.5
		c-2-2.4-3.9-4-7.2-0.5c-8,8.5-14.1,18.4-21.6,27.1c-14.4,16.7-28.7,33.6-42.3,50.9c-8,10.1-14.6,21.3-23.2,31
		c-4.6,5.2-15.4,6.4-21,2.2c-3.6-2.7-3.4-6.1-1-9.1c7.9-9.9,14.1-20.9,22-30.7c8.1-10.1,15.7-20.5,23-31.2c5.6-8.2,13-15.1,19-22.9
		c13.4-17.5,28.3-33.9,41.8-51.3c11.7-15,23.8-29.8,36.7-43.9c5.6-6.1,10.6-12.7,16.2-18.9c7-7.7,20.9-6.5,26.9,1.9
		c15.1,21,29.9,42.3,44.3,63.8c3.8,5.7,2.5,9.4-4,11.8c-6.1,2.2-12.5,1.2-18.7,1.4C2065.9,392.1,2021.5,393.1,2008.3,393.1z
		 M2068.4,375.5c1.8-3.2-18-27.9-26.3-37.2c-2.5-2.8-4.2-3.3-6.9,0.3c-9,11.5-18.4,22.7-27.6,34c-1.1,1.4-3,2.7-2,4.7
		c1,1.9,3.2,1.4,5,1.4C2018.2,378.7,2066.9,378.2,2068.4,375.5z"/>
	<path d="M2014.4,92.1c-2.6,0-5.3,0.5-7.9,0.9c-1.5,0.2-2.5,0.8-2.8,2.4c-0.2,1.4,0.3,2.4,1.4,3.4c9.5,8.6,17.5,18.5,25.2,28.7
		c6.3,8.3,13.3,16.1,19.2,24.8c6.8,10,14.1,19.7,21,29.6c4.7,6.6,9.1,13.4,13.7,20.1c0.9,1.4,2.1,2.7,2.5,4.3c2.5,8.8,0.5,11.3-7,12
		c-6.7,0.6-12.1-1.1-15.9-7c-8.5-13.1-17.8-25.6-27.5-37.9c-12.5-15.9-26-31-39.1-46.4c-4.9-5.8-9.8-11.7-14.5-17.7
		c-3-3.8-5.4-2.6-7.9,0.5c-5.8,7.1-10.8,14.7-16.6,21.8c-15.2,18.6-30.2,37.5-44.8,56.6c-6.8,8.8-12.6,18.3-19.2,27.2
		c-5,6.7-11.1,9.7-19.4,7.9c-6.8-1.5-8.2-5.4-4.6-11.1c15.9-24.8,33.7-48.2,51-71.8c15.2-20.7,32.1-40.2,48.1-60.4
		c9.2-11.6,18.9-22.7,28-34.3c8.6-10.9,17.7-21.4,26.6-32.1c7.4-8.9,21.4-7.9,27.9,1.6c11.8,17.5,25.2,33.8,36.3,51.8
		c2.3,3.7,4.8,7.2,7.1,10.8c3.3,5.1,1.9,9.8-3.7,11.9c-3.5,1.3-7.1,1.4-10.8,1.4C2070.1,91.2,2025.8,92,2014.4,92.1z M2062.4,75.9
		c4-0.2,5-1.4,2.8-5.1c-6.6-10.8-13.9-21.1-22.4-30.5c-5.4-6-7.1-5.6-12.1,0.8c-8.2,10.6-16.8,21-25.2,31.4c-1,1.2-1.9,2.4-1.2,4
		c0.7,1.7,2.3,1.6,3.8,1.6C2015.6,78,2051.9,76.4,2062.4,75.9z"/>
	<path d="M268.6,399c-15.2-0.3-33.3,0.1-51.4,1c-6.5,0.3-8.5,5.8-12,9.4c-13.9,14.4-23.9,32.1-39.6,45.2
		c-7.5,6.2-13.6,14.2-21.6,19.8c-10.8,7.4-19.2,17.3-28.4,26.3c-12.4,12.2-23.6,25.5-34.8,38.8c-10.2,12.1-20,24.7-29.7,37.3
		c-4.8,6.3-9.4,12.9-13.3,19.8c-3.4,6.1-15.2,8-21.1-0.5c-2.1-3,0-5.5,1.5-7.8c6.3-9.5,13.4-18.6,19.2-28.4
		c11.5-19.5,27.1-36,40.3-54.1c6.7-9.2,15-17.3,22.3-26.1c10-12.1,42.5-42.6,48-46.3c6.8-4.5,11.3-11.1,17.3-16.4
		c3.7-3.3,7.4-6.6,11.2-9.7c1.6-1.3,3.2-3.5,1.5-5c-0.7-0.6-1.8-1.1-3.3-1.1c-20.6,0.5-41.1,2-61.6,3.5c-20.7,1.5-41.5,1.6-62.2,1.9
		c-2.3,0-4.8-0.3-6.8-1.4c-3.1-1.6-4.1-3.2-4.2-6.4c-0.1-3.4,1.4-5.4,4.5-6.3c8.6-2.4,17.4-1.6,26.1-1.8c24.6-0.5,49.1-1.7,73.6-3.9
		c12.9-1.2,25.9-0.8,38.8-1.2c24.2-0.8,48.4-2.1,72.6-2.3c29.9-0.2,59.8-1.5,89.7-1.9c4.1-0.1,7.9,0.7,11.8,1.8
		c2.4,0.7,4.3,1.8,4.7,4.5c0.4,3.1-1.5,4.5-3.9,5.7c-4,2.1-8.4,3.3-12.9,3.4C320.4,397.7,296,398.3,268.6,399z"/>
	<path d="M503.9,290.1c-3.7,0-7.7-1.1-11.3-3.3c-3.3-2-3.7-4.6-1-7.4c10.3-10.6,19.2-22.4,29.5-33c12.3-12.7,24.9-25.1,38-37
		c14-12.7,28.6-24.5,43.3-36.2c10.2-8.1,21.5-14.9,30.8-24.1c8.9-8.7,19.9-14.8,29.1-23.1c11.5-10.4,23.3-20.5,33.7-32.1
		c6.9-7.7,13.8-16,23.6-20.4c7.9-3.5,16.2-3.3,24.3-0.5c5.4,1.9,6.3,6.6,2.1,10.4c-11.2,10.3-22.7,20.3-33.8,30.8
		c-7.9,7.5-15.5,15.5-23,23.5c-7.6,8.1-16.4,14.8-24.4,22.3c-13.2,12.3-27.8,22.9-41.8,34.2c-11.4,9.2-22.8,18.6-35.1,26.7
		c-10.9,7.2-19.5,17.1-29.4,25.6c-13.3,11.4-24.9,24.7-37.6,36.7C516.1,287.6,510.9,290.2,503.9,290.1z"/>
	<path d="M429,590.2c-3.1,0.2-6-0.3-8.7-1.8c-3.7-2.1-4.7-6.1-2.1-9.6c10.2-13.8,22-26.3,32.7-39.7c9.4-11.9,21-21.5,30.8-32.9
		c9.2-10.6,19.7-20.1,28.5-31c14.5-17.8,31-33.6,47.7-49.1c10-9.3,20.2-18.5,31.2-26.8c8.8-6.7,17.6-13.5,26.2-20.5
		c4.4-3.6,10-4.3,15.4-5c6.8-0.9,10.6-1.2,17.4,0.2c3,0.6,5.1,1.8,6.5,5.3c1.1,3-2.2,6.9-4.6,8.9c-8.9,6.1-13.4,9.9-20.9,17.2
		c-6,5.8-13.4,9.8-19.9,15c-12.1,9.8-24.1,19.6-36.1,29.6c-7.5,6.3-15,12.7-22.1,19.4c-9,8.5-17.9,17.2-26.3,26.3
		c-14.6,15.8-28.4,32.4-43.3,47.8c-13,13.5-26.3,26.6-38.1,41.1C439.6,589.1,434.5,590.2,429,590.2z"/>
</g>
</svg>
